<?xml version="1.0" encoding="UTF-8"?>
<svg id="Layer_2" data-name="Layer 2" xmlns="http://www.w3.org/2000/svg" viewBox="0 0 175.12 59.87">
  <defs>
    <style>
      .cls-1 {
        fill: #040273;
      }

      .cls-2 {
        fill: #03032b;
      }
    </style>
  </defs>
  <g id="Layer_1-2" data-name="Layer 1">
    <g>
      <g>
        <path class="cls-2" d="M69.86,58.2h-.04l-2.12-3.17v4.84h-1.17v-6.77h1.27l2.06,3.2,2.06-3.2h1.27v6.77h-1.19v-4.85l-2.14,3.19Z"/>
        <path class="cls-2" d="M82.47,54.16h-3.83v1.76h3.39v1.06h-3.39v1.82h3.88v1.06h-5.07v-6.77h5.02v1.06Z"/>
        <path class="cls-2" d="M88.97,59.87h-2.52v-6.77h2.52c2.13,0,3.6,1.46,3.6,3.38s-1.47,3.39-3.6,3.39ZM88.97,54.18h-1.34v4.6h1.34c1.42,0,2.35-.96,2.35-2.29s-.93-2.31-2.35-2.31Z"/>
        <path class="cls-2" d="M97.78,53.1v6.77h-1.19v-6.77h1.19Z"/>
        <path class="cls-2" d="M108.58,59.87h-1.26l-.69-1.63h-3.2l-.7,1.63h-1.22l2.98-6.82h1.1l2.98,6.82ZM105.03,54.47l-1.16,2.71h2.33l-1.17-2.71Z"/>
      </g>
      <g>
        <g>
          <path class="cls-2" d="M9.65,36.21l-3.62,8.32-3.61-8.32H0l4.83,11.11h2.42l4.82-11.11h-2.42Z"/>
          <path class="cls-2" d="M13.43,36.21v11.11h2.23v-11.11h-2.23Z"/>
          <path class="cls-2" d="M21.96,38.42h7.05v-2.21h-7.41c-2.47,0-3.71,1.1-3.71,3.33s1.24,3.34,3.71,3.34h3.34c1.23,0,1.85.37,1.85,1.11s-.62,1.11-1.85,1.11h-7.05v2.21h7.41c2.47,0,3.71-1.1,3.71-3.33s-1.24-3.34-3.71-3.34h-3.34c-1.23,0-1.85-.37-1.85-1.11s.62-1.11,1.85-1.11Z"/>
          <path class="cls-2" d="M40.13,36.21v7.1c0,1.19-.59,1.8-1.78,1.8h-3.11c-1.19,0-1.78-.59-1.78-1.8v-7.1h-2.21v7.4c0,2.48,1.23,3.71,3.71,3.71h3.71c2.47,0,3.71-1.23,3.71-3.71v-7.4h-2.23Z"/>
          <path class="cls-2" d="M50.98,36.21h-2.42l-4.83,11.11h2.43l3.61-8.32,3.62,8.32h2.42l-4.82-11.11Z"/>
          <path class="cls-2" d="M59.39,45.1v-8.89h-2.23v11.11h11.12v-2.21h-8.89Z"/>
          <path class="cls-2" d="M83.04,36.21l-3.62,8.32-3.62-8.32h-2.42l4.82,11.11h2.42l4.83-11.11h-2.42Z"/>
          <path class="cls-2" d="M91.84,36.21h-2.42l-4.83,11.11h2.43l3.61-8.32,3.62,8.32h2.42l-4.82-11.11Z"/>
          <path class="cls-2" d="M106.93,36.21v7.74l-6.63-7.74h-2.26v11.11h2.21v-7.74l6.64,7.74h2.26v-11.11h-2.23Z"/>
          <path class="cls-2" d="M115.38,38.42h7.11v-2.21h-7.41c-2.47,0-3.71,1.23-3.71,3.69v3.71c0,2.48,1.24,3.71,3.71,3.71h7.41v-5.92h-2.23v3.71h-4.87c-1.2,0-1.8-.59-1.8-1.8v-3.1c0-1.19.59-1.78,1.78-1.78Z"/>
          <path class="cls-2" d="M133.61,36.21v7.1c0,1.19-.59,1.8-1.78,1.8h-3.11c-1.18,0-1.77-.59-1.77-1.8v-7.1h-2.23v7.4c0,2.48,1.24,3.71,3.71,3.71h3.71c2.47,0,3.71-1.23,3.71-3.71v-7.4h-2.23Z"/>
          <path class="cls-2" d="M144.47,36.21h-2.42l-4.82,11.11h2.42l3.61-8.32,3.62,8.32h2.42l-4.82-11.11Z"/>
          <path class="cls-2" d="M157.38,42.88h.7c2.47,0,3.71-1.11,3.71-3.34s-1.24-3.33-3.71-3.33h-7.41v2.21h7.03c1.24,0,1.86.38,1.86,1.11s-.62,1.11-1.86,1.11h-7.03v2.23h3.3l5.22,4.44h3.42l-5.22-4.44Z"/>
          <path class="cls-2" d="M171.41,36.21h-7.4v2.21h7.1c1.19,0,1.77.58,1.77,1.76v3.16c0,1.16-.58,1.76-1.77,1.76h-7.1v2.21h7.4c2.48,0,3.71-1.23,3.71-3.71v-3.71c0-2.47-1.23-3.69-3.71-3.69Z"/>
        </g>
        <g>
          <polygon class="cls-1" points="100.23 2.31 98.81 4.72 87.58 23.72 76.37 4.74 74.94 2.32 80.82 3.91 87.58 15.4 94.32 3.93 100.23 2.31"/>
          <polygon class="cls-2" points="87.58 27.2 82.52 27.2 66.45 0 72.5 1.64 87.58 27.2"/>
          <polygon class="cls-2" points="71.12 11.42 73.65 15.72 66.86 27.2 61.8 27.2 71.12 11.42"/>
          <polygon class="cls-2" points="113.33 27.2 108.27 27.2 101.5 15.74 104.03 11.44 113.33 27.2"/>
          <polygon class="cls-2" points="108.69 0 92.64 27.2 87.58 27.2 102.66 1.64 108.69 0"/>
        </g>
      </g>
    </g>
  </g>
</svg>